<svg version="1.1" xmlns="http://www.w3.org/2000/svg" xmlns:xlink="http://www.w3.org/1999/xlink" width="1024" height="1024" viewBox="427.5,-42.5,1024,1024"><defs><clipPath id="clip-1"><rect x="129.98983" y="16.74568" transform="scale(4.15032,4.15032)" width="192.756" height="192.756" id="clip-1" fill="none" fill-rule="nonzero"/></clipPath></defs><g id="document" fill="#ffffff" fill-rule="nonzero" stroke="#000000" stroke-width="0" stroke-linecap="butt" stroke-linejoin="miter" stroke-miterlimit="10" stroke-dasharray="" stroke-dashoffset="0" font-family="none" font-weight="none" font-size="none" text-anchor="none" style="mix-blend-mode: normal"><rect x="292.23633" y="-20.75195" transform="scale(1.46286,2.048)" width="700" height="500" id="Shape 1 1" vector-effect="non-scaling-stroke"/></g><g fill="none" fill-rule="none" stroke="none" stroke-width="1" stroke-linecap="none" stroke-linejoin="none" stroke-miterlimit="10" stroke-dasharray="" stroke-dashoffset="0" font-family="none" font-weight="none" font-size="none" text-anchor="none" style="mix-blend-mode: normal"><g><g id="stage"><g id="layer1 1"><g clip-path="url(#clip-1)" id="Group 1" stroke="none" stroke-linecap="butt" stroke-linejoin="miter"><g id="Group 1" fill-rule="evenodd"><path d="M539.5,69.5h800v800h-800z" id="Path 1" fill="#ffffff"/><path d="M912.04975,608.01294l-195.45124,21.01724l38.58557,37.64345h276.70215l-102.58358,-60.55324zM912.04975,452.08939l269.17761,-71.84627c0,0 39.21642,-2.82222 78.11741,-90.97927l-347.29503,113.88491l-270.11974,88.1529c0,0 -23.21692,7.52869 -32.31443,13.80398c0,0 -6.27529,3.76849 -6.27529,12.54643c0,0 0.6267,6.59072 5.33317,11.30133l11.60846,11.60846l147.44859,-38.27845c0,0 -9.09751,-11.92388 9.09751,-14.43068zM912.04975,592.63599c0.31127,3.13765 2.82222,5.96817 2.82222,5.96817l-2.82222,0.30712l-204.86418,23.21692l-38.90514,-36.39005l243.76517,-43.61161l208.30895,-37.0209c-34.19038,67.14395 -103.21443,67.14395 -103.21443,67.14395l-85.95738,10.97761c-14.43068,0.31542 -18.5063,4.07562 -19.13715,7.84826zM912.04975,476.55555l283.92372,-71.83797c-33.56783,75.92189 -101.0189,78.42869 -101.0189,78.42869l-182.90481,37.0209l-59.92239,12.23101c-28.86551,0.63085 -16.31493,15.37695 -16.31493,15.37695l-174.74527,29.80763l-32.6257,-28.86551zM912.04975,323.1471l396.8665,-162.19884c0,0 -13.49686,39.84727 -21.96767,60.23781c0,0 -10.35091,32.31443 -51.7587,45.17629l-323.14014,114.20034l-280.15937,98.50796c0,0 -36.07462,12.86601 -42.03864,27.92754c0,0 -8.47081,17.24875 14.43483,36.70547l135.21343,122.97827h-53.01625l-108.86302,-106.6675c0,0 -24.47031,-20.07927 -26.35456,-48.62936v-5.95987c0.31542,-1.8801 0.31542,-3.76019 0.94212,-5.95987c0,0 4.70647,-31.37646 51.76285,-50.50945zM623.41957,686.75705h-70.26915v17.25705h15.99535v52.38955h-15.99535v17.88375h70.26915v-17.88375h-17.2529v-16.6262h51.767v16.6262h-16.94163v17.88375h69.33533v-17.88375h-16.6262v-52.38955h16.6262v-17.25705h-69.65075v17.25705h17.25705v17.24875h-51.767v-17.24875h17.2529zM1240.52306,727.23102h13.48856l-13.48856,-20.3947l-1.57297,-1.8801l-12.23101,22.27479zM1240.52306,686.75705h27.91923l42.03864,69.6466h17.25705v17.88375h-75.61477v-17.88375h16.94163l-7.21326,-10.35091h-45.79883l-5.64859,10.35091h16.6262v17.88375h-58.34942v-17.88375h17.88375l28.85721,-52.38955h-19.44842v-17.25705zM1105.93217,755.46153c16.6262,-1.8801 26.35456,-8.15539 26.35456,-24.47031c0,-18.82172 -10.97761,-24.78159 -26.35456,-26.35456c-2.82222,-0.31542 -5.64859,-0.31542 -8.77794,-0.31542h-17.57248v51.767h14.1194c4.39104,0 8.46666,-0.31127 12.23101,-0.6267zM1105.93217,686.75705h11.29303c28.86551,0 50.51775,13.48856 50.51775,44.23416c0,35.44792 -20.3947,42.66949 -61.81079,43.29619h-78.74411v-17.88375h16.94163v-52.38955h-16.94163v-17.25705zM784.04959,759.5413c16.31493,-0.31542 29.17678,-13.17313 29.17678,-28.86551c0,-16.6262 -13.17728,-29.17263 -29.17678,-29.17263h-0.31542c-15.9995,0 -28.86136,12.54643 -28.86136,28.86551c0,15.36865 12.23516,29.17263 28.55008,29.17263zM784.04959,682.36186h0.94212c41.09652,0 68.07778,15.37695 68.07778,47.06468c0,29.17263 -24.78574,48.62105 -69.0199,48.62105h-1.2534c-42.98076,0 -68.70863,-16.6262 -68.70863,-47.99436c0,-30.11891 25.41244,-47.69138 69.96202,-47.69138zM928.04925,686.75705h-69.33118v17.25705h16.6262v52.38955h-16.6262v17.88375h55.21592v-17.88375h-17.25705v-44.86086l48.62936,62.74046h53.6471v-70.2733h17.56417v-17.25705h-57.10017v17.25705h17.88375v46.11426z" id="CompoundPath 1" fill="#000000"/></g></g><path d="M525.64909,833.64377c-3.31371,0 -6,-2.68629 -6,-6v-152.57827c0,-3.31371 2.68629,-6 6,-6h807.84938c3.31371,0 6,2.68629 6,6v152.57827c0,3.31371 -2.68629,6 -6,6z" id="Path 1" fill-opacity="0" fill="#ffffff" fill-rule="nonzero" stroke="#ffffff" stroke-linecap="round" stroke-linejoin="round"/><path d="M525.64909,810.83333c-3.31371,0 -6,-2.68629 -6,-6v-129.76783c0,-3.31371 2.68629,-6 6,-6h821.15868c3.31371,0 6,2.68629 6,6v129.76783c0,3.31371 -2.68629,6 -6,6z" id="Path 1" fill-opacity="0" fill="#000000" fill-rule="nonzero" stroke="#ffffff" stroke-linecap="round" stroke-linejoin="round"/><path d="M465.57987,804.2902c-3.31371,0 -6,-2.68629 -6,-6v-123.2247c0,-3.31371 2.68629,-6 6,-6h903.03834c3.31371,0 6,2.68629 6,6v123.2247c0,3.31371 -2.68629,6 -6,6z" id="Path 1" fill="#ffffff" fill-rule="nonzero" stroke="#ffffff" stroke-linecap="round" stroke-linejoin="round"/></g></g></g></g></svg>