<?xml version="1.0" encoding="utf-8"?>
<svg viewBox="0 0 500 500" xmlns="http://www.w3.org/2000/svg">
  <defs/>
  <path d="M 308.81 14.758 L 191.189 14.758 L 191.189 52.709 C 177.498 56.752 164.449 62.266 152.044 68.882 L 125.211 42.05 L 42.05 125.211 L 68.882 152.044 C 62.174 164.357 56.752 177.498 52.709 191.189 L 14.758 191.189 L 14.758 308.81 L 52.709 308.81 C 56.752 322.502 62.266 335.551 68.882 347.956 L 42.05 374.788 L 125.211 457.95 L 152.044 431.118 C 164.357 437.826 177.498 443.247 191.189 447.291 L 191.189 485.242 L 308.81 485.242 L 308.81 447.291 C 322.502 443.247 335.551 437.734 347.956 431.118 L 374.788 457.95 L 457.95 374.788 L 431.118 347.956 C 437.826 335.643 443.247 322.502 447.291 308.81 L 485.242 308.81 L 485.242 191.189 L 447.291 191.189 C 443.247 177.498 437.734 164.449 431.118 152.044 L 457.95 125.211 L 374.788 42.05 L 347.956 68.882 C 335.643 62.174 322.502 56.752 308.81 52.709 L 308.81 14.758 Z M 250 132.379 C 340.544 132.379 397.134 230.397 351.862 308.81 C 330.851 345.203 292.022 367.621 250 367.621 C 159.455 367.621 102.864 269.604 148.136 191.189 C 169.147 154.798 207.978 132.379 250 132.379 Z M 250 205.892 C 266.977 205.892 277.588 187.514 269.099 172.811 C 265.159 165.988 257.879 161.784 250 161.784 C 233.022 161.784 222.411 180.162 230.9 194.865 C 234.84 201.689 242.12 205.892 250 205.892 Z M 193.854 208.557 C 177.691 203.323 161.921 217.548 165.47 234.164 C 167.117 241.876 172.752 248.123 180.254 250.551 C 196.417 255.786 212.187 241.561 208.638 224.945 C 206.991 217.233 201.355 210.986 193.854 208.557 Z M 291.902 236.308 C 297.136 252.472 317.906 256.907 329.287 244.293 C 334.568 238.438 336.325 230.21 333.897 222.708 C 328.662 206.545 307.892 202.109 296.512 214.725 C 291.23 220.579 289.473 228.807 291.902 236.308 Z M 271.043 316.437 C 280.495 330.54 301.669 329.121 309.156 313.884 C 312.895 306.271 311.939 297.191 306.697 290.524 C 297.244 276.422 276.069 277.841 268.583 293.079 C 264.844 300.69 265.8 309.772 271.043 316.437 Z M 224.087 285.654 C 210.742 275.159 191.04 283.045 188.623 299.849 C 187.415 308.243 191.129 316.586 198.173 321.308 C 211.517 331.803 231.219 323.917 233.636 307.113 C 234.843 298.719 231.131 290.376 224.087 285.654 Z" style="fill: rgb(217, 0, 0);"/>
</svg>